<?xml version="1.0" standalone="no"?>
<!DOCTYPE svg PUBLIC "-//W3C//DTD SVG 20010904//EN"
 "http://www.w3.org/TR/2001/REC-SVG-20010904/DTD/svg10.dtd">
<svg version="1.0" xmlns="http://www.w3.org/2000/svg"
 width="280.000000pt" height="280.000000pt" viewBox="0 0 280.000000 280.000000"
 preserveAspectRatio="xMidYMid meet">
<metadata>
Created by potrace 1.11, written by Peter Selinger 2001-2013
</metadata>
<g transform="translate(0.000000,280.000000) scale(0.100000,-0.100000)"
fill="#000000" stroke="none">
<path d="M1390 2674 c-6 -14 -10 -40 -10 -59 0 -24 -7 -39 -26 -54 -25 -20
-39 -21 -250 -21 l-224 0 0 -32 c0 -58 -10 -78 -43 -86 -23 -6 -33 -16 -39
-39 -5 -18 -17 -34 -28 -38 -39 -12 -52 -48 -45 -117 8 -75 18 -1903 10 -1935
-3 -12 -17 -35 -31 -52 -18 -22 -24 -40 -22 -63 l3 -33 715 0 715 0 3 34 c3
26 -3 40 -25 63 l-28 29 1 942 c0 518 4 972 9 1009 8 74 -5 110 -45 123 -11 4
-23 20 -28 38 -5 21 -15 33 -29 35 -31 5 -51 32 -55 77 l-3 40 -206 5 c-185 4
-209 7 -228 24 -13 12 -21 31 -21 52 0 50 -16 84 -40 84 -13 0 -24 -10 -30
-26z"/>
</g>
</svg>
